<?xml version="1.0" encoding="UTF-8"?>
<svg id="Camada_1" xmlns="http://www.w3.org/2000/svg" version="1.1" viewBox="0 0 501 499">
  <!-- Generator: Adobe Illustrator 29.3.1, SVG Export Plug-In . SVG Version: 2.1.0 Build 151)  -->
  <rect x="275.1" width="6.1" height="6.1" rx="1.3" ry="1.3"/>
  <rect x="299.5" width="6.1" height="6.1" rx="1.3" ry="1.3"/>
  <rect x="323.8" width="6.1" height="6.1" rx="1.3" ry="1.3"/>
  <rect x="348.1" width="6.1" height="6.1" rx="1.3" ry="1.3"/>
  <rect x="372.4" width="6.1" height="6.1" rx="1.3" ry="1.3"/>
  <rect x="396.8" width="6.1" height="6.1" rx="1.3" ry="1.3"/>
  <rect x="421.1" width="6.1" height="6.1" rx="1.3" ry="1.3"/>
  <rect x="445.4" width="6.1" height="6.1" rx="1.3" ry="1.3"/>
  <rect x="469.7" width="6.1" height="6.1" rx="1.3" ry="1.3"/>
  <rect x="494.1" width="6.1" height="6.1" rx="1.3" ry="1.3"/>
  <rect x="275.1" y="24.3" width="6.1" height="6.1" rx="1.3" ry="1.3"/>
  <rect x="299.5" y="24.3" width="6.1" height="6.1" rx="1.3" ry="1.3"/>
  <rect x="323.8" y="24.3" width="6.1" height="6.1" rx="1.3" ry="1.3"/>
  <rect x="348.1" y="24.3" width="6.1" height="6.1" rx="1.3" ry="1.3"/>
  <rect x="372.4" y="24.3" width="6.1" height="6.1" rx="1.3" ry="1.3"/>
  <rect x="396.8" y="24.3" width="6.1" height="6.1" rx="1.3" ry="1.3"/>
  <rect x="421.1" y="24.3" width="6.1" height="6.1" rx="1.3" ry="1.3"/>
  <rect x="445.4" y="24.3" width="6.1" height="6.1" rx="1.3" ry="1.3"/>
  <rect x="469.7" y="24.3" width="6.1" height="6.1" rx="1.3" ry="1.3"/>
  <rect x="494.1" y="24.3" width="6.1" height="6.1" rx="1.3" ry="1.3"/>
  <rect x="275.1" y="48.6" width="6.1" height="6.1" rx="1.3" ry="1.3"/>
  <rect x="299.5" y="48.6" width="6.1" height="6.1" rx="1.3" ry="1.3"/>
  <rect x="323.8" y="48.6" width="6.1" height="6.1" rx="1.3" ry="1.3"/>
  <rect x="348.1" y="48.6" width="6.1" height="6.1" rx="1.3" ry="1.3"/>
  <rect x="372.4" y="48.6" width="6.1" height="6.1" rx="1.3" ry="1.3"/>
  <rect x="396.8" y="48.6" width="6.1" height="6.1" rx="1.3" ry="1.3"/>
  <rect x="421.1" y="48.6" width="6.1" height="6.1" rx="1.3" ry="1.3"/>
  <rect x="445.4" y="48.6" width="6.1" height="6.1" rx="1.3" ry="1.3"/>
  <rect x="469.7" y="48.6" width="6.1" height="6.1" rx="1.3" ry="1.3"/>
  <rect x="494.1" y="48.6" width="6.1" height="6.1" rx="1.3" ry="1.3"/>
  <rect x="275.1" y="72.8" width="6.1" height="6.1" rx="1.3" ry="1.3"/>
  <rect x="299.5" y="72.8" width="6.1" height="6.1" rx="1.3" ry="1.3"/>
  <rect x="323.8" y="72.8" width="6.1" height="6.1" rx="1.3" ry="1.3"/>
  <rect x="348.1" y="72.8" width="6.1" height="6.1" rx="1.3" ry="1.3"/>
  <rect x="372.4" y="72.8" width="6.1" height="6.1" rx="1.3" ry="1.3"/>
  <rect x="396.8" y="72.8" width="6.1" height="6.1" rx="1.3" ry="1.3"/>
  <rect x="421.1" y="72.8" width="6.1" height="6.1" rx="1.3" ry="1.3"/>
  <rect x="445.4" y="72.8" width="6.1" height="6.1" rx="1.3" ry="1.3"/>
  <rect x="469.7" y="72.8" width="6.1" height="6.1" rx="1.3" ry="1.3"/>
  <rect x="494.1" y="72.8" width="6.1" height="6.1" rx="1.3" ry="1.3"/>
  <rect x="275.1" y="97.1" width="6.1" height="6.1" rx="1.3" ry="1.3"/>
  <rect x="299.5" y="97.1" width="6.1" height="6.1" rx="1.3" ry="1.3"/>
  <rect x="323.8" y="97.1" width="6.1" height="6.1" rx="1.3" ry="1.3"/>
  <rect x="348.1" y="97.1" width="6.1" height="6.1" rx="1.3" ry="1.3"/>
  <rect x="372.4" y="97.1" width="6.1" height="6.1" rx="1.3" ry="1.3"/>
  <rect x="396.8" y="97.1" width="6.1" height="6.1" rx="1.3" ry="1.3"/>
  <rect x="421.1" y="97.1" width="6.1" height="6.1" rx="1.3" ry="1.3"/>
  <rect x="445.4" y="97.1" width="6.1" height="6.1" rx="1.3" ry="1.3"/>
  <rect x="469.7" y="97.1" width="6.1" height="6.1" rx="1.3" ry="1.3"/>
  <rect x="494.1" y="97.1" width="6.1" height="6.1" rx="1.3" ry="1.3"/>
  <rect x="275.1" y="121.4" width="6.1" height="6.1" rx="1.3" ry="1.3"/>
  <rect x="299.5" y="121.4" width="6.1" height="6.1" rx="1.3" ry="1.3"/>
  <rect x="323.8" y="121.4" width="6.1" height="6.1" rx="1.3" ry="1.3"/>
  <rect x="348.1" y="121.4" width="6.1" height="6.1" rx="1.3" ry="1.3"/>
  <rect x="372.4" y="121.4" width="6.1" height="6.1" rx="1.3" ry="1.3"/>
  <rect x="396.8" y="121.4" width="6.1" height="6.1" rx="1.3" ry="1.3"/>
  <rect x="421.1" y="121.4" width="6.1" height="6.1" rx="1.3" ry="1.3"/>
  <rect x="445.4" y="121.4" width="6.1" height="6.1" rx="1.3" ry="1.3"/>
  <rect x="469.7" y="121.4" width="6.1" height="6.1" rx="1.3" ry="1.3"/>
  <rect x="494.1" y="121.4" width="6.1" height="6.1" rx="1.3" ry="1.3"/>
  <rect x="275.1" y="145.7" width="6.1" height="6.1" rx="1.3" ry="1.3"/>
  <rect x="275.1" y="169.1" width="6.1" height="6.1" rx="1.3" ry="1.3"/>
  <rect x="275.1" y="192.5" width="6.1" height="6.1" rx="1.3" ry="1.3"/>
  <rect x="275.1" y="215.9" width="6.1" height="6.1" rx="1.3" ry="1.3"/>
  <rect x="299.5" y="145.7" width="6.1" height="6.1" rx="1.3" ry="1.3"/>
  <rect x="299.5" y="169.1" width="6.1" height="6.1" rx="1.3" ry="1.3"/>
  <rect x="299.5" y="192.5" width="6.1" height="6.1" rx="1.3" ry="1.3"/>
  <rect x="299.5" y="215.9" width="6.1" height="6.1" rx="1.3" ry="1.3"/>
  <rect x="323.8" y="145.7" width="6.1" height="6.1" rx="1.3" ry="1.3"/>
  <rect x="323.8" y="169.1" width="6.1" height="6.1" rx="1.3" ry="1.3"/>
  <rect x="323.8" y="192.5" width="6.1" height="6.1" rx="1.3" ry="1.3"/>
  <rect x="323.8" y="215.9" width="6.1" height="6.1" rx="1.3" ry="1.3"/>
  <rect x="348.1" y="145.7" width="6.1" height="6.1" rx="1.3" ry="1.3"/>
  <rect x="348.1" y="169.1" width="6.1" height="6.1" rx="1.3" ry="1.3"/>
  <rect x="348.1" y="192.5" width="6.1" height="6.1" rx="1.3" ry="1.3"/>
  <rect x="348.1" y="215.9" width="6.1" height="6.1" rx="1.3" ry="1.3"/>
  <rect x="372.4" y="145.7" width="6.1" height="6.1" rx="1.3" ry="1.3"/>
  <rect x="372.4" y="169.1" width="6.1" height="6.1" rx="1.3" ry="1.3"/>
  <rect x="372.4" y="192.5" width="6.1" height="6.1" rx="1.3" ry="1.3"/>
  <rect x="372.4" y="215.9" width="6.1" height="6.1" rx="1.3" ry="1.3"/>
  <rect x="396.8" y="145.7" width="6.1" height="6.1" rx="1.3" ry="1.3"/>
  <rect x="396.8" y="169.1" width="6.1" height="6.1" rx="1.3" ry="1.3"/>
  <rect x="396.8" y="192.5" width="6.1" height="6.1" rx="1.3" ry="1.3"/>
  <rect x="396.8" y="215.9" width="6.1" height="6.1" rx="1.3" ry="1.3"/>
  <rect x="421.1" y="145.7" width="6.1" height="6.1" rx="1.3" ry="1.3"/>
  <rect x="421.1" y="169.1" width="6.1" height="6.1" rx="1.3" ry="1.3"/>
  <rect x="421.1" y="192.5" width="6.1" height="6.1" rx="1.3" ry="1.3"/>
  <rect x="421.1" y="215.9" width="6.1" height="6.1" rx="1.3" ry="1.3"/>
  <rect x="445.4" y="145.7" width="6.1" height="6.1" rx="1.3" ry="1.3"/>
  <rect x="445.4" y="169.1" width="6.1" height="6.1" rx="1.3" ry="1.3"/>
  <rect x="445.4" y="192.5" width="6.1" height="6.1" rx="1.3" ry="1.3"/>
  <rect x="445.4" y="215.9" width="6.1" height="6.1" rx="1.3" ry="1.3"/>
  <rect x="469.7" y="145.7" width="6.1" height="6.1" rx="1.3" ry="1.3"/>
  <rect x="469.7" y="169.1" width="6.1" height="6.1" rx="1.3" ry="1.3"/>
  <rect x="469.7" y="192.5" width="6.1" height="6.1" rx="1.3" ry="1.3"/>
  <rect x="469.7" y="215.9" width="6.1" height="6.1" rx="1.3" ry="1.3"/>
  <rect x="494.1" y="145.7" width="6.1" height="6.1" rx="1.3" ry="1.3"/>
  <rect x="494.1" y="169.1" width="6.1" height="6.1" rx="1.3" ry="1.3"/>
  <rect x="494.1" y="192.5" width="6.1" height="6.1" rx="1.3" ry="1.3"/>
  <rect x="494.1" y="215.9" width="6.1" height="6.1" rx="1.3" ry="1.3"/>
  <rect x=".8" y="277" width="6.1" height="6.1" rx="1.3" ry="1.3"/>
  <rect x="25.1" y="277" width="6.1" height="6.1" rx="1.3" ry="1.3"/>
  <rect x="49.4" y="277" width="6.1" height="6.1" rx="1.3" ry="1.3"/>
  <rect x="73.8" y="277" width="6.1" height="6.1" rx="1.3" ry="1.3"/>
  <rect x="98.1" y="277" width="6.1" height="6.1" rx="1.3" ry="1.3"/>
  <rect x="122.4" y="277" width="6.1" height="6.1" rx="1.3" ry="1.3"/>
  <rect x="146.7" y="277" width="6.1" height="6.1" rx="1.3" ry="1.3"/>
  <rect x="171.1" y="277" width="6.1" height="6.1" rx="1.3" ry="1.3"/>
  <rect x="195.4" y="277" width="6.1" height="6.1" rx="1.3" ry="1.3"/>
  <rect x="219.7" y="277" width="6.1" height="6.1" rx="1.3" ry="1.3"/>
  <rect x=".8" y="301.3" width="6.1" height="6.1" rx="1.3" ry="1.3"/>
  <rect x="25.1" y="301.3" width="6.1" height="6.1" rx="1.3" ry="1.3"/>
  <rect x="49.4" y="301.3" width="6.1" height="6.1" rx="1.3" ry="1.3"/>
  <rect x="73.8" y="301.3" width="6.1" height="6.1" rx="1.3" ry="1.3"/>
  <rect x="98.1" y="301.3" width="6.1" height="6.1" rx="1.3" ry="1.3"/>
  <rect x="122.4" y="301.3" width="6.1" height="6.1" rx="1.3" ry="1.3"/>
  <rect x="146.7" y="301.3" width="6.1" height="6.1" rx="1.3" ry="1.3"/>
  <rect x="171.1" y="301.3" width="6.1" height="6.1" rx="1.3" ry="1.3"/>
  <rect x="195.4" y="301.3" width="6.1" height="6.1" rx="1.3" ry="1.3"/>
  <rect x="219.7" y="301.3" width="6.1" height="6.1" rx="1.3" ry="1.3"/>
  <rect x=".8" y="325.6" width="6.1" height="6.1" rx="1.3" ry="1.3"/>
  <rect x="25.1" y="325.6" width="6.1" height="6.1" rx="1.3" ry="1.3"/>
  <rect x="49.4" y="325.6" width="6.1" height="6.1" rx="1.3" ry="1.3"/>
  <rect x="73.8" y="325.6" width="6.1" height="6.1" rx="1.3" ry="1.3"/>
  <rect x="98.1" y="325.6" width="6.1" height="6.1" rx="1.3" ry="1.3"/>
  <rect x="122.4" y="325.6" width="6.1" height="6.1" rx="1.3" ry="1.3"/>
  <rect x="146.7" y="325.6" width="6.1" height="6.1" rx="1.3" ry="1.3"/>
  <rect x="171.1" y="325.6" width="6.1" height="6.1" rx="1.3" ry="1.3"/>
  <rect x="195.4" y="325.6" width="6.1" height="6.1" rx="1.3" ry="1.3"/>
  <rect x="219.7" y="325.6" width="6.1" height="6.1" rx="1.3" ry="1.3"/>
  <rect x=".8" y="349.8" width="6.1" height="6.1" rx="1.3" ry="1.3"/>
  <rect x="25.1" y="349.8" width="6.1" height="6.1" rx="1.3" ry="1.3"/>
  <rect x="49.4" y="349.8" width="6.1" height="6.1" rx="1.3" ry="1.3"/>
  <rect x="73.8" y="349.8" width="6.1" height="6.1" rx="1.3" ry="1.3"/>
  <rect x="98.1" y="349.8" width="6.1" height="6.1" rx="1.3" ry="1.3"/>
  <rect x="122.4" y="349.8" width="6.1" height="6.1" rx="1.3" ry="1.3"/>
  <rect x="146.7" y="349.8" width="6.1" height="6.1" rx="1.3" ry="1.3"/>
  <rect x="171.1" y="349.8" width="6.1" height="6.1" rx="1.3" ry="1.3"/>
  <rect x="195.4" y="349.8" width="6.1" height="6.1" rx="1.3" ry="1.3"/>
  <rect x="219.7" y="349.8" width="6.1" height="6.1" rx="1.3" ry="1.3"/>
  <rect x=".8" y="374.1" width="6.1" height="6.1" rx="1.3" ry="1.3"/>
  <rect x="25.1" y="374.1" width="6.1" height="6.1" rx="1.3" ry="1.3"/>
  <rect x="49.4" y="374.1" width="6.1" height="6.1" rx="1.3" ry="1.3"/>
  <rect x="73.8" y="374.1" width="6.1" height="6.1" rx="1.3" ry="1.3"/>
  <rect x="98.1" y="374.1" width="6.1" height="6.1" rx="1.3" ry="1.3"/>
  <rect x="122.4" y="374.1" width="6.1" height="6.1" rx="1.3" ry="1.3"/>
  <rect x="146.7" y="374.1" width="6.1" height="6.1" rx="1.3" ry="1.3"/>
  <rect x="171.1" y="374.1" width="6.1" height="6.1" rx="1.3" ry="1.3"/>
  <rect x="195.4" y="374.1" width="6.1" height="6.1" rx="1.3" ry="1.3"/>
  <rect x="219.7" y="374.1" width="6.1" height="6.1" rx="1.3" ry="1.3"/>
  <rect x=".8" y="398.4" width="6.1" height="6.1" rx="1.3" ry="1.3"/>
  <rect x="25.1" y="398.4" width="6.1" height="6.1" rx="1.3" ry="1.3"/>
  <rect x="49.4" y="398.4" width="6.1" height="6.1" rx="1.3" ry="1.3"/>
  <rect x="73.8" y="398.4" width="6.1" height="6.1" rx="1.3" ry="1.3"/>
  <rect x="98.1" y="398.4" width="6.1" height="6.1" rx="1.3" ry="1.3"/>
  <rect x="122.4" y="398.4" width="6.1" height="6.1" rx="1.3" ry="1.3"/>
  <rect x="146.7" y="398.4" width="6.1" height="6.1" rx="1.3" ry="1.3"/>
  <rect x="171.1" y="398.4" width="6.1" height="6.1" rx="1.3" ry="1.3"/>
  <rect x="195.4" y="398.4" width="6.1" height="6.1" rx="1.3" ry="1.3"/>
  <rect x="219.7" y="398.4" width="6.1" height="6.1" rx="1.3" ry="1.3"/>
  <rect x=".8" y="422.7" width="6.1" height="6.1" rx="1.3" ry="1.3"/>
  <rect x=".8" y="446.1" width="6.1" height="6.1" rx="1.3" ry="1.3"/>
  <rect x=".8" y="469.5" width="6.1" height="6.1" rx="1.3" ry="1.3"/>
  <rect x=".8" y="492.9" width="6.1" height="6.1" rx="1.3" ry="1.3"/>
  <rect x="25.1" y="422.7" width="6.1" height="6.1" rx="1.3" ry="1.3"/>
  <rect x="25.1" y="446.1" width="6.1" height="6.1" rx="1.3" ry="1.3"/>
  <rect x="25.1" y="469.5" width="6.1" height="6.1" rx="1.3" ry="1.3"/>
  <rect x="25.1" y="492.9" width="6.1" height="6.1" rx="1.3" ry="1.3"/>
  <rect x="49.4" y="422.7" width="6.1" height="6.1" rx="1.3" ry="1.3"/>
  <rect x="49.4" y="446.1" width="6.1" height="6.1" rx="1.3" ry="1.3"/>
  <rect x="49.4" y="469.5" width="6.1" height="6.1" rx="1.3" ry="1.3"/>
  <rect x="49.4" y="492.9" width="6.1" height="6.1" rx="1.3" ry="1.3"/>
  <rect x="73.8" y="422.7" width="6.1" height="6.1" rx="1.3" ry="1.3"/>
  <rect x="73.8" y="446.1" width="6.1" height="6.1" rx="1.3" ry="1.3"/>
  <rect x="73.8" y="469.5" width="6.1" height="6.1" rx="1.3" ry="1.3"/>
  <rect x="73.8" y="492.9" width="6.1" height="6.1" rx="1.3" ry="1.3"/>
  <rect x="98.1" y="422.7" width="6.1" height="6.1" rx="1.3" ry="1.3"/>
  <rect x="98.1" y="446.1" width="6.1" height="6.1" rx="1.3" ry="1.3"/>
  <rect x="98.1" y="469.5" width="6.1" height="6.1" rx="1.3" ry="1.3"/>
  <rect x="98.1" y="492.9" width="6.1" height="6.1" rx="1.3" ry="1.3"/>
  <rect x="122.4" y="422.7" width="6.1" height="6.1" rx="1.3" ry="1.3"/>
  <rect x="122.4" y="446.1" width="6.1" height="6.1" rx="1.3" ry="1.3"/>
  <rect x="122.4" y="469.5" width="6.1" height="6.1" rx="1.3" ry="1.3"/>
  <rect x="122.4" y="492.9" width="6.1" height="6.1" rx="1.3" ry="1.3"/>
  <rect x="146.7" y="422.7" width="6.1" height="6.1" rx="1.3" ry="1.3"/>
  <rect x="146.7" y="446.1" width="6.1" height="6.1" rx="1.3" ry="1.3"/>
  <rect x="146.7" y="469.5" width="6.1" height="6.1" rx="1.3" ry="1.3"/>
  <rect x="146.7" y="492.9" width="6.1" height="6.1" rx="1.3" ry="1.3"/>
  <rect x="171.1" y="422.7" width="6.1" height="6.1" rx="1.3" ry="1.3"/>
  <rect x="171.1" y="446.1" width="6.1" height="6.1" rx="1.3" ry="1.3"/>
  <rect x="171.1" y="469.5" width="6.1" height="6.1" rx="1.3" ry="1.3"/>
  <rect x="171.1" y="492.9" width="6.1" height="6.1" rx="1.3" ry="1.3"/>
  <rect x="195.4" y="422.7" width="6.1" height="6.1" rx="1.3" ry="1.3"/>
  <rect x="195.4" y="446.1" width="6.1" height="6.1" rx="1.3" ry="1.3"/>
  <rect x="195.4" y="469.5" width="6.1" height="6.1" rx="1.3" ry="1.3"/>
  <rect x="195.4" y="492.9" width="6.1" height="6.1" rx="1.3" ry="1.3"/>
  <rect x="219.7" y="422.7" width="6.1" height="6.1" rx="1.3" ry="1.3"/>
  <rect x="219.7" y="446.1" width="6.1" height="6.1" rx="1.3" ry="1.3"/>
  <rect x="219.7" y="469.5" width="6.1" height="6.1" rx="1.3" ry="1.3"/>
  <rect x="219.7" y="492.9" width="6.1" height="6.1" rx="1.3" ry="1.3"/>
</svg>